<svg width="58" height="49" viewBox="0 0 58 49" fill="none" xmlns="http://www.w3.org/2000/svg">
<path d="M12.62 48.4002C8.89999 48.4002 5.95999 47.0202 3.79999 44.2602C1.75999 41.5002 0.73999 38.2002 0.73999 34.3602C0.73999 27.2802 2.29999 21.0402 5.41999 15.6402C8.65999 10.2402 14 5.08016 21.44 0.160156L24.68 4.48015C20.72 7.12016 17.24 10.3602 14.24 14.2002C11.36 17.9202 9.91999 22.1802 9.91999 26.9802L12.62 26.4402C16.1 26.4402 18.8 27.4602 20.72 29.5002C22.64 31.4202 23.6 34.0602 23.6 37.4202C23.6 40.7802 22.64 43.4802 20.72 45.5202C18.8 47.4402 16.1 48.4002 12.62 48.4002ZM45.38 48.4002C41.66 48.4002 38.72 47.0202 36.56 44.2602C34.52 41.5002 33.5 38.2002 33.5 34.3602C33.5 27.2802 35.06 21.0402 38.18 15.6402C41.42 10.2402 46.76 5.08016 54.2 0.160156L57.44 4.48015C53.48 7.12016 50 10.3602 47 14.2002C44.12 17.9202 42.68 22.1802 42.68 26.9802L45.38 26.4402C48.86 26.4402 51.56 27.4602 53.48 29.5002C55.4 31.4202 56.36 34.0602 56.36 37.4202C56.36 40.7802 55.4 43.4802 53.48 45.5202C51.56 47.4402 48.86 48.4002 45.38 48.4002Z" fill="#C6C6C6"/>
</svg>
