<svg width="17" height="18" viewBox="0 0 17 18" fill="none" xmlns="http://www.w3.org/2000/svg">
<path d="M16.08 8.28768L9.1875 15.1802C8.34312 16.0246 7.19789 16.4989 6.00375 16.4989C4.80962 16.4989 3.66439 16.0246 2.82 15.1802C1.97562 14.3358 1.50125 13.1906 1.50125 11.9964C1.50125 10.8023 1.97562 9.65707 2.82 8.81268L9.7125 1.92018C10.2754 1.35726 11.0389 1.04102 11.835 1.04102C12.6311 1.04102 13.3946 1.35726 13.9575 1.92018C14.5204 2.48311 14.8367 3.24659 14.8367 4.04268C14.8367 4.83878 14.5204 5.60226 13.9575 6.16518L7.0575 13.0577C6.77604 13.3391 6.3943 13.4973 5.99625 13.4973C5.59821 13.4973 5.21646 13.3391 4.935 13.0577C4.65354 12.7762 4.49542 12.3945 4.49542 11.9964C4.49542 11.5984 4.65354 11.2166 4.935 10.9352L11.3025 4.57518" stroke="#2B4098" stroke-width="1.4" stroke-linecap="round" stroke-linejoin="round"/>
</svg>
